<svg viewBox="0 0 200 200" xmlns="http://www.w3.org/2000/svg">
  <!-- Fond dégradé -->
  <defs>
    <linearGradient id="bgGradient" x1="0%" y1="0%" x2="100%" y2="100%">
      <stop offset="0%" style="stop-color:#ff6b9d;stop-opacity:1" />
      <stop offset="100%" style="stop-color:#c44569;stop-opacity:1" />
    </linearGradient>

    <linearGradient id="heartGradient" x1="0%" y1="0%" x2="100%" y2="100%">
      <stop offset="0%" style="stop-color:#ffffff;stop-opacity:0.9" />
      <stop offset="100%" style="stop-color:#f8f9fa;stop-opacity:0.8" />
    </linearGradient>

    <linearGradient id="sparkleGradient" x1="0%" y1="0%" x2="100%" y2="100%">
      <stop offset="0%" style="stop-color:#ffd700;stop-opacity:1" />
      <stop offset="100%" style="stop-color:#ffed4e;stop-opacity:0.8" />
    </linearGradient>
  </defs>

  <!-- Fond arrondi -->
  <rect x="0" y="0" width="200" height="200" rx="45" ry="45" fill="url(#bgGradient)" />

  <!-- Étoiles décoratives -->
  <g fill="url(#sparkleGradient)" opacity="0.7">
    <polygon points="40,40 42,48 50,48 44,52 46,60 40,56 34,60 36,52 30,48 38,48" />
    <polygon points="160,35 161,40 166,40 162,43 164,48 160,45 156,48 158,43 154,40 159,40" />
    <polygon points="170,160 171,165 176,165 172,168 174,173 170,170 166,173 168,168 164,165 169,165" />
    <polygon points="35,170 36,175 41,175 37,178 39,183 35,180 31,183 33,178 29,175 34,175" />
  </g>

  <!-- Cœur principal -->
  <path
    d="M100 150 C85 140, 60 115, 60 90 C60 75, 72 65, 85 65 C92 65, 97 68, 100 75 C103 68, 108 65, 115 65 C128 65, 140 75, 140 90 C140 115, 115 140, 100 150 Z"
    fill="url(#heartGradient)" stroke="#ffffff" stroke-width="2" />

  <!-- Verres à champagne -->
  <g transform="translate(70, 80)">
    <!-- Verre gauche -->
    <path d="M0 25 L8 25 L10 35 L-2 35 Z" fill="#ffffff" opacity="0.9" />
    <ellipse cx="4" cy="25" rx="4" ry="2" fill="#ffffff" opacity="0.9" />
    <rect x="3" y="35" width="2" height="8" fill="#ffffff" opacity="0.9" />
    <rect x="0" y="43" width="8" height="2" fill="#ffffff" opacity="0.9" />

    <!-- Verre droit -->
    <path d="M52 25 L60 25 L62 35 L50 35 Z" fill="#ffffff" opacity="0.9" />
    <ellipse cx="56" cy="25" rx="4" ry="2" fill="#ffffff" opacity="0.9" />
    <rect x="55" y="35" width="2" height="8" fill="#ffffff" opacity="0.9" />
    <rect x="52" y="43" width="8" height="2" fill="#ffffff" opacity="0.9" />
  </g>

  <!-- Bulles de champagne -->
  <g fill="#ffffff" opacity="0.6">
    <circle cx="78" cy="70" r="1.5" />
    <circle cx="82" cy="65" r="1" />
    <circle cx="118" cy="68" r="1.5" />
    <circle cx="122" cy="63" r="1" />
    <circle cx="126" cy="70" r="1.2" />
  </g>

  <!-- Calendrier stylisé -->
  <g transform="translate(85, 110)">
    <rect x="0" y="0" width="30" height="25" rx="3" ry="3" fill="#ffffff" opacity="0.9" />
    <rect x="0" y="0" width="30" height="8" rx="3" ry="3" fill="#ff6b9d" />
    <rect x="5" y="-3" width="2" height="6" fill="#ffffff" />
    <rect x="23" y="-3" width="2" height="6" fill="#ffffff" />

    <!-- Petit cœur sur le calendrier -->
    <path
      d="M15 18 C13 17, 11 15, 11 13 C11 12, 12 11, 13 11 C14 11, 15 12, 15 13 C15 12, 16 11, 17 11 C18 11, 19 12, 19 13 C19 15, 17 17, 15 18 Z"
      fill="#ff6b9d" />
  </g>

  <!-- Effet de brillance -->
  <ellipse cx="70" cy="60" rx="20" ry="15" fill="#ffffff" opacity="0.2" transform="rotate(-45 70 60)" />
</svg>